<svg version="1.1" id="Layer_1" xmlns="http://www.w3.org/2000/svg" xmlns:xlink="http://www.w3.org/1999/xlink" x="0px" y="0px"
	 width="100%" viewBox="0 0 94 105" enable-background="new 0 0 94 105" xml:space="preserve">
<path fill="#FDFEFF" opacity="1.000000" stroke="none" 
	d="
M58.000000,106.000000 
	C38.666672,106.000000 19.833340,106.000000 1.000008,106.000000 
	C1.000005,71.000008 1.000005,36.000019 1.000003,1.000022 
	C32.333317,1.000014 63.666637,1.000014 94.999969,1.000007 
	C94.999977,35.999981 94.999977,70.999962 94.999985,105.999969 
	C82.833336,106.000000 70.666664,106.000000 58.000000,106.000000 
M14.968149,88.449310 
	C14.968149,91.200150 14.968149,93.950989 14.968149,96.713608 
	C20.714773,96.713608 25.641491,96.713608 31.118717,96.713608 
	C31.118717,78.607689 31.118717,60.778473 31.118717,41.616745 
	C32.479919,43.523659 33.066391,44.250992 33.552498,45.040150 
	C43.413574,61.048882 53.229694,77.085533 63.168205,93.045975 
	C64.132805,94.595047 65.749336,96.668892 67.218979,96.803902 
	C72.285561,97.269348 77.421204,96.982994 82.640961,96.982994 
	C82.640961,68.041504 82.640961,39.696514 82.640961,11.299018 
	C77.328804,11.299018 72.411285,11.299018 66.777756,11.299018 
	C66.777756,29.807495 66.777756,48.031265 66.777756,67.689392 
	C65.077110,65.103676 64.222603,63.884716 63.449162,62.616322 
	C53.746979,46.705284 44.092125,30.765125 34.306580,14.905585 
	C33.354706,13.362873 31.706648,11.343367 30.223055,11.201196 
	C25.331715,10.732462 20.367455,11.024643 14.968102,11.024643 
	C14.968102,36.919514 14.968102,62.189960 14.968149,88.449310 
z"/>
<path fill="#7595EC" opacity="1.000000" stroke="none" 
	d="
M14.968126,87.954865 
	C14.968102,62.189960 14.968102,36.919514 14.968102,11.024643 
	C20.367455,11.024643 25.331715,10.732462 30.223055,11.201196 
	C31.706648,11.343367 33.354706,13.362873 34.306580,14.905585 
	C44.092125,30.765125 53.746979,46.705284 63.449162,62.616322 
	C64.222603,63.884716 65.077110,65.103676 66.777756,67.689392 
	C66.777756,48.031265 66.777756,29.807495 66.777756,11.299018 
	C72.411285,11.299018 77.328804,11.299018 82.640961,11.299018 
	C82.640961,39.696514 82.640961,68.041504 82.640961,96.982994 
	C77.421204,96.982994 72.285561,97.269348 67.218979,96.803902 
	C65.749336,96.668892 64.132805,94.595047 63.168205,93.045975 
	C53.229694,77.085533 43.413574,61.048882 33.552498,45.040150 
	C33.066391,44.250992 32.479919,43.523659 31.118717,41.616745 
	C31.118717,60.778473 31.118717,78.607689 31.118717,96.713608 
	C25.641491,96.713608 20.714773,96.713608 14.968149,96.713608 
	C14.968149,93.950989 14.968149,91.200150 14.968126,87.954865 
z"/>
</svg>